<?xml version="1.0" encoding="UTF-8" standalone="no"?>
<!DOCTYPE svg PUBLIC "-//W3C//DTD SVG 1.1//EN" "http://www.w3.org/Graphics/SVG/1.1/DTD/svg11.dtd">
<svg width="100%" height="100%" viewBox="0 0 285 260" version="1.1" xmlns="http://www.w3.org/2000/svg" xmlns:xlink="http://www.w3.org/1999/xlink" xml:space="preserve" xmlns:serif="http://www.serif.com/" style="fill-rule:evenodd;clip-rule:evenodd;stroke-linejoin:round;stroke-miterlimit:1.41421;">
    <g transform="matrix(3.125,0,0,3.125,0,0)">
        <g transform="matrix(1,0,0,1,-7,-11)">
            <path d="M98,89L89.4,84L89.4,87L16,87L16,23.1L21,23.1L14,11L7,23.1L12,23.1L12,89C12,90.1 12.9,91 14,91L89.4,91L89.4,94L98,89Z" style="fill-rule:nonzero;"/>
            <path d="M79.6,27.1L68.9,57.8L59.6,57.8L53.7,38C53.5,37.2 52.7,36.6 51.9,36.6C51.1,36.6 50.3,37.1 50,37.9L42.3,57.4L36.3,43.4C36,42.8 35.4,42.3 34.7,42.2C34,42.1 33.3,42.4 32.9,42.9L21.4,57.3C21.1,57.7 21,58.1 21,58.5L21,81C21,82.1 21.9,83 23,83L81.5,83C82.6,83 83.5,82.1 83.5,81L83.5,27.8C83.5,26.8 82.8,26 81.8,25.8C80.9,25.6 79.9,26.2 79.6,27.1ZM33.9,47.9L40.5,63.3C40.8,64 41.5,64.5 42.3,64.5C43.1,64.5 43.8,64 44.1,63.2L51.4,44.6L56.1,60.3C56.4,61.1 57.1,61.7 58,61.7L70.2,61.7C71,61.7 71.8,61.2 72.1,60.4L79.4,39.5L79.4,79L25,79L25,59.2L33.9,47.9Z" style="fill-rule:nonzero;"/>
        </g>
    </g>
</svg>
