<?xml version="1.0" encoding="UTF-8" standalone="no"?>
<!DOCTYPE svg PUBLIC "-//W3C//DTD SVG 1.1//EN" "http://www.w3.org/Graphics/SVG/1.1/DTD/svg11.dtd">
<svg width="100%" height="100%" viewBox="0 0 282 282" version="1.1" xmlns="http://www.w3.org/2000/svg" xmlns:xlink="http://www.w3.org/1999/xlink" xml:space="preserve" xmlns:serif="http://www.serif.com/" style="fill-rule:evenodd;clip-rule:evenodd;stroke-linejoin:round;stroke-miterlimit:1.41421;">
    <g transform="matrix(3.125,0,0,3.125,0,0)">
        <g transform="matrix(1,0,0,1,-5,-5)">
            <path d="M50,95C74.813,95 95,74.813 95,50C95,25.187 74.813,5 50,5C25.187,5 5,25.187 5,50C5,74.813 25.187,95 50,95ZM50,9.39C72.393,9.39 90.61,27.607 90.61,50C90.61,72.393 72.393,90.61 50,90.61C27.607,90.61 9.39,72.393 9.39,50C9.39,27.607 27.607,9.39 50,9.39Z" style="fill-rule:nonzero;"/>
            <path d="M50,20.101C51.383,20.101 52.508,18.976 52.508,17.593C52.508,16.209 51.383,15.084 50,15.084C48.617,15.084 47.492,16.209 47.492,17.593C47.492,18.976 48.617,20.101 50,20.101Z" style="fill-rule:nonzero;"/>
            <path d="M50,79.899C48.617,79.899 47.492,81.024 47.492,82.407C47.492,83.791 48.617,84.916 50,84.916C51.383,84.916 52.508,83.791 52.508,82.407C52.508,81.024 51.383,79.899 50,79.899Z" style="fill-rule:nonzero;"/>
            <path d="M18.403,42.371C19.717,42.798 21.136,42.075 21.564,40.76C21.992,39.446 21.268,38.028 19.953,37.599C19.697,37.516 19.436,37.477 19.18,37.477C18.122,37.477 17.137,38.151 16.793,39.21C16.586,39.848 16.64,40.527 16.943,41.124C17.248,41.721 17.767,42.164 18.403,42.371Z" style="fill-rule:nonzero;"/>
            <path d="M81.597,57.629C81.341,57.545 81.08,57.506 80.824,57.506C79.766,57.506 78.78,58.181 78.436,59.24C78.008,60.554 78.732,61.972 80.047,62.401C81.359,62.824 82.779,62.106 83.207,60.79C83.414,60.152 83.36,59.473 83.057,58.876C82.752,58.279 82.233,57.836 81.597,57.629Z" style="fill-rule:nonzero;"/>
            <path d="M29.476,78.246C30.019,78.642 30.679,78.801 31.343,78.695C32.004,78.591 32.585,78.234 32.979,77.693C33.375,77.15 33.533,76.487 33.428,75.826C33.324,75.165 32.967,74.584 32.426,74.19C31.992,73.874 31.482,73.709 30.955,73.709C30.823,73.709 30.691,73.72 30.558,73.741C29.897,73.845 29.316,74.202 28.922,74.743L28.921,74.744C28.527,75.286 28.368,75.949 28.473,76.61C28.578,77.272 28.935,77.853 29.476,78.246Z" style="fill-rule:nonzero;"/>
            <path d="M67.574,25.81C68.116,26.206 68.777,26.364 69.441,26.259C70.102,26.155 70.683,25.798 71.077,25.257C71.473,24.714 71.631,24.051 71.526,23.39C71.422,22.729 71.065,22.148 70.524,21.754C70.09,21.438 69.58,21.273 69.053,21.273C68.921,21.273 68.789,21.284 68.656,21.305C67.995,21.409 67.414,21.766 67.02,22.307L67.019,22.308C66.625,22.85 66.466,23.513 66.571,24.174C66.676,24.835 67.033,25.416 67.574,25.81Z" style="fill-rule:nonzero;"/>
            <path d="M69.441,73.741C69.308,73.72 69.175,73.709 69.043,73.709C68.518,73.709 68.008,73.874 67.575,74.189C67.033,74.583 66.676,75.164 66.572,75.826C66.467,76.487 66.626,77.15 67.02,77.692L67.021,77.693C67.414,78.234 67.995,78.591 68.657,78.695C69.32,78.803 69.982,78.641 70.523,78.247C71.065,77.853 71.422,77.272 71.526,76.61C71.631,75.949 71.472,75.286 71.078,74.744C70.683,74.202 70.102,73.845 69.441,73.741Z" style="fill-rule:nonzero;"/>
            <path d="M28.923,25.257C29.316,25.798 29.897,26.155 30.559,26.259C31.222,26.366 31.884,26.205 32.425,25.811C32.967,25.417 33.324,24.836 33.428,24.174C33.533,23.513 33.374,22.85 32.98,22.308C32.586,21.766 32.005,21.409 31.343,21.305C31.21,21.284 31.077,21.273 30.945,21.273C30.42,21.273 29.91,21.438 29.477,21.753C28.935,22.147 28.578,22.728 28.474,23.39C28.369,24.051 28.528,24.714 28.922,25.256L28.923,25.257Z" style="fill-rule:nonzero;"/>
            <path d="M81.597,42.371C82.234,42.164 82.752,41.721 83.057,41.124C83.36,40.527 83.414,39.847 83.207,39.21C82.863,38.151 81.877,37.477 80.82,37.477C80.563,37.477 80.302,37.517 80.046,37.6C78.732,38.028 78.008,39.446 78.436,40.761C78.863,42.075 80.282,42.798 81.597,42.371Z" style="fill-rule:nonzero;"/>
            <path d="M19.176,57.506C18.92,57.506 18.659,57.546 18.403,57.629C17.766,57.836 17.248,58.279 16.943,58.876C16.64,59.473 16.586,60.153 16.793,60.79C17.221,62.106 18.639,62.824 19.953,62.401C21.268,61.972 21.992,60.554 21.564,59.239C21.22,58.181 20.234,57.506 19.176,57.506Z" style="fill-rule:nonzero;"/>
            <path d="M40.365,72.225L45.174,72.225L45.174,67.389L50.003,67.389L50.003,72.225L54.813,72.225L54.813,67.343L55.35,67.332C57.475,67.288 58.911,67.228 59.615,67.152C61.423,66.953 62.954,66.419 64.163,65.567C65.375,64.719 66.351,63.559 67.064,62.118C67.772,60.67 68.133,59.167 68.133,57.652C68.133,55.737 67.583,54.05 66.501,52.637L66.501,52.636C65.414,51.218 63.832,50.2 61.797,49.609L60.368,49.194L61.724,48.581C63.151,47.937 64.299,46.955 65.135,45.66C65.967,44.372 66.388,42.933 66.388,41.382C66.388,39.951 66.047,38.648 65.376,37.508C64.692,36.348 63.831,35.41 62.816,34.719C61.8,34.024 60.626,33.561 59.329,33.342C58.397,33.183 57.057,33.079 55.347,33.032L54.813,33.017L54.813,27.776L50.003,27.776L50.003,32.999L45.174,32.999L45.174,27.776L40.365,27.776L40.365,32.999L34.062,32.999L34.062,37.809L39.5,37.809L39.5,62.579L34.062,62.579L34.062,67.388L40.365,67.388L40.365,72.225ZM45.569,37.809L50.234,37.809C53.664,37.809 55.686,37.85 56.42,37.932C57.749,38.092 58.775,38.573 59.472,39.362C60.163,40.146 60.514,41.166 60.514,42.395C60.514,43.693 60.107,44.757 59.302,45.558C58.517,46.346 57.435,46.827 56.085,46.986C55.372,47.07 53.599,47.112 50.816,47.112L45.57,47.112L45.57,37.809L45.569,37.809ZM45.569,51.92L51.905,51.92C55.245,51.92 57.381,52.096 58.437,52.457C59.525,52.835 60.368,53.452 60.947,54.289C61.529,55.116 61.825,56.136 61.825,57.315C61.825,58.703 61.439,59.839 60.678,60.69C59.924,61.534 58.945,62.069 57.763,62.284C57.036,62.434 55.392,62.509 52.751,62.509L45.57,62.509L45.57,51.92L45.569,51.92Z" style="fill-rule:nonzero;"/>
        </g>
    </g>
</svg>
