<?xml version="1.0" encoding="UTF-8" standalone="no"?>
<!DOCTYPE svg PUBLIC "-//W3C//DTD SVG 1.1//EN" "http://www.w3.org/Graphics/SVG/1.1/DTD/svg11.dtd">
<svg width="100%" height="100%" viewBox="0 0 112 104" version="1.1" xmlns="http://www.w3.org/2000/svg" xmlns:xlink="http://www.w3.org/1999/xlink" xml:space="preserve" xmlns:serif="http://www.serif.com/" style="fill-rule:evenodd;clip-rule:evenodd;stroke-linejoin:round;stroke-miterlimit:1.41421;">
    <g transform="matrix(3.125,0,0,3.125,0,0)">
        <g transform="matrix(1,0,0,1,-32,-33.717)">
            <path d="M64.857,36.589C63.088,34.838 60.539,33.717 57.859,33.717C56.281,33.717 54.797,34.077 53.371,34.8C51.945,35.523 50.786,36.511 49.873,37.767C48.96,36.511 47.801,35.523 46.374,34.8C44.947,34.077 43.466,33.717 41.887,33.717C39.206,33.717 36.659,34.838 34.89,36.589C33.121,38.338 32,40.885 32,43.566C32,45.41 32.392,47.201 32.876,48.548C33.115,49.215 33.475,49.94 33.959,50.677C34.446,51.423 34.89,52.046 35.27,52.541C35.65,53.034 36.193,53.654 36.924,54.365C37.657,55.08 38.255,55.64 38.692,56.038C39.13,56.439 39.796,57.029 40.669,57.787C41.677,58.663 42.396,59.314 42.856,59.728C43.308,60.132 43.959,60.754 44.814,61.572C46.546,63.226 47.815,64.749 49.017,66.496C49.241,66.823 49.53,66.972 49.873,66.972C50.234,66.972 50.547,66.825 50.767,66.496C51.535,65.342 52.424,64.161 53.466,62.999C54.516,61.824 55.391,60.911 56.091,60.259C56.797,59.599 57.816,58.679 59.133,57.502C59.947,56.775 60.596,56.229 61.034,55.831C61.472,55.431 62.042,54.88 62.746,54.175C63.448,53.472 64.005,52.867 64.399,52.369C64.803,51.859 65.231,51.243 65.712,50.507C66.695,48.999 67.124,47.807 67.479,46.133C67.657,45.297 67.746,44.44 67.746,43.566C67.746,40.885 66.623,38.338 64.857,36.589ZM65.465,45.506C65.098,47.615 63.995,49.685 62.155,51.723C61.353,52.612 59.879,54.028 57.726,55.944C56.609,56.937 55.71,57.75 55.007,58.397C54.322,59.025 53.48,59.875 52.478,60.945C51.484,62.004 50.614,63.056 49.873,64.082C49.093,63.074 48.195,62.051 47.174,61.002C46.142,59.942 45.347,59.138 44.759,58.606C44.169,58.073 43.272,57.28 42.04,56.191L40.727,55.03L39.531,53.947C39.011,53.477 38.611,53.097 38.352,52.806C38.098,52.527 37.762,52.161 37.344,51.703C36.926,51.247 36.603,50.847 36.393,50.524C35.957,49.859 35.217,48.865 34.947,48.035L34.511,46.684C34.192,45.699 34.092,44.687 34.092,43.566C34.092,41.437 34.852,39.611 36.373,38.11C37.914,36.589 39.741,35.828 41.887,35.828C43.391,35.828 44.777,36.226 46.053,37.044C47.326,37.862 48.309,38.939 48.942,40.294C49.126,40.689 49.438,40.885 49.873,40.885C50.311,40.885 50.65,40.702 50.844,40.294C51.486,38.952 52.402,37.862 53.676,37.044C54.95,36.226 56.358,35.828 57.859,35.828C60.008,35.828 61.834,36.589 63.355,38.09C64.877,39.592 65.637,41.417 65.637,43.566C65.635,44.232 65.574,44.877 65.465,45.506Z"/>
        </g>
    </g>
</svg>
