<?xml version="1.0" encoding="UTF-8" standalone="no"?>
<!DOCTYPE svg PUBLIC "-//W3C//DTD SVG 1.1//EN" "http://www.w3.org/Graphics/SVG/1.1/DTD/svg11.dtd">
<svg width="100%" height="100%" viewBox="0 0 161 146" version="1.1" xmlns="http://www.w3.org/2000/svg" xmlns:xlink="http://www.w3.org/1999/xlink" xml:space="preserve" xmlns:serif="http://www.serif.com/" style="fill-rule:evenodd;clip-rule:evenodd;stroke-linejoin:round;stroke-miterlimit:1.41421;">
    <g transform="matrix(3.125,0,0,3.125,0,0)">
        <g transform="matrix(1,0,0,1,-24.259,-26.715)">
            <path d="M61.213,62.293C60.256,62.142 60.238,59.545 60.238,59.545C60.238,59.545 63.037,56.797 63.646,53.103C65.287,53.103 66.3,49.173 64.66,47.791C64.726,46.335 66.769,36.37 56.435,36.37C46.103,36.37 48.144,46.335 48.21,47.791C46.567,49.173 47.581,53.103 49.224,53.103C49.831,56.797 52.632,59.545 52.632,59.545C52.632,59.545 52.612,62.142 51.657,62.293C48.589,62.775 37.132,67.787 37.132,73.283L75.74,73.283C75.74,67.787 64.281,62.775 61.213,62.293ZM41.557,63.168C43.776,61.804 46.465,60.54 48.67,59.778C47.881,58.65 46.998,57.117 46.443,55.301C45.668,54.668 45.039,53.766 44.634,52.656C44.228,51.544 44.073,50.301 44.202,49.152C44.29,48.329 44.526,47.56 44.886,46.885C44.667,44.542 44.513,39.946 47.525,36.592C48.691,35.29 50.164,34.357 51.933,33.792C51.617,30.536 49.966,26.715 43.566,26.715C33.228,26.715 35.271,36.681 35.339,38.136C33.698,39.518 34.712,43.448 36.355,43.448C36.962,47.142 39.765,49.89 39.765,49.89C39.765,49.89 39.74,52.487 38.788,52.638C35.72,53.121 24.259,58.134 24.259,63.628L40.829,63.628C41.066,63.476 41.309,63.322 41.557,63.168Z" style="fill-rule:nonzero;"/>
        </g>
    </g>
</svg>
