<?xml version="1.0" encoding="UTF-8" standalone="no"?>
<!DOCTYPE svg PUBLIC "-//W3C//DTD SVG 1.1//EN" "http://www.w3.org/Graphics/SVG/1.1/DTD/svg11.dtd">
<svg width="100%" height="100%" viewBox="0 0 56 56" version="1.1" xmlns="http://www.w3.org/2000/svg" xmlns:xlink="http://www.w3.org/1999/xlink" xml:space="preserve" xmlns:serif="http://www.serif.com/" style="fill-rule:evenodd;clip-rule:evenodd;stroke-linejoin:round;stroke-miterlimit:1.41421;">
    <g transform="matrix(3.125,0,0,3.125,0,0)">
        <g transform="matrix(1,0,0,1,-2.10343,-2)">
            <path d="M19.8,3C19.6,2.4 19,2 18.4,2L3.6,2C3,2 2.4,2.4 2.2,3C2,3.6 2.1,4.2 2.6,4.6L9,10.3L9,19.2C9,19.5 9.1,19.7 9.4,19.8C9.5,19.9 9.6,19.9 9.7,19.9C9.8,19.9 10,19.9 10.1,19.8L13,17.9L13,10.4L19.4,4.7C19.9,4.2 20,3.5 19.8,3ZM18.7,3.9L12,9.9L12,17.3L10,18.6L10,9.8L3.3,3.8C3.1,3.7 3.1,3.5 3.1,3.3C3.2,3.1 3.4,3 3.6,3L18.4,3C18.6,3 18.8,3.1 18.9,3.3C18.9,3.5 18.9,3.7 18.7,3.9Z" style="fill-rule:nonzero;"/>
        </g>
    </g>
</svg>
