<?xml version="1.0" encoding="UTF-8" standalone="no"?>
<!DOCTYPE svg PUBLIC "-//W3C//DTD SVG 1.1//EN" "http://www.w3.org/Graphics/SVG/1.1/DTD/svg11.dtd">
<svg width="100%" height="100%" viewBox="0 0 269 304" version="1.1" xmlns="http://www.w3.org/2000/svg" xmlns:xlink="http://www.w3.org/1999/xlink" xml:space="preserve" xmlns:serif="http://www.serif.com/" style="fill-rule:evenodd;clip-rule:evenodd;stroke-linejoin:round;stroke-miterlimit:1.41421;">
    <g transform="matrix(3.125,0,0,3.125,0,0)">
        <g transform="matrix(1,0,0,1,-7,-1.49443)">
            <path d="M57.9,73C56.8,73.6 55.5,74.2 54.2,74.6C51.7,75.5 49,76 46.3,76C43.6,76 41,75.6 38.5,74.7C33.3,72.9 29.3,69.7 26.3,66C22.2,68.3 14.7,72.5 7,78.2C15.9,90.4 30.2,98.4 46.5,98.4C51.6,98.4 56.6,97.6 61.2,96.1C57.9,92.4 55.8,87.5 55.8,82.2C55.8,78.9 56.6,75.8 57.9,73Z" style="fill-rule:nonzero;"/>
            <path d="M76.7,65.9C67.7,65.9 60.4,73.2 60.4,82.2C60.4,91.2 67.7,98.5 76.7,98.5C85.7,98.5 93,91.2 93,82.2C93,73.2 85.7,65.9 76.7,65.9ZM77.4,91.5L74.4,88.5L78.5,84.4L67.2,84.4L67.2,80.1L78.5,80.1L74.4,76L77.4,73L86.7,82.3L77.4,91.5Z" style="fill-rule:nonzero;"/>
            <path d="M62.9,10.5C62.8,10.5 62.8,10.4 62.7,10.4C61.5,5.5 54.5,0.4 47.9,1.7C41.3,3.1 27.7,1.5 27.7,1.5C27.5,4.4 30,6.4 30,6.4C18.5,13.4 20.6,28.4 21.7,33.8C21.6,33.9 21.5,34 21.4,34.2C19,37.4 19.9,42 20.8,45.1C21.4,47.1 22.4,50.9 24.8,53.1C26.6,59.7 31.8,67.4 40.2,70.4C42.2,71.1 44.3,71.5 46.5,71.5C48.6,71.5 50.7,71.1 52.7,70.4C61.1,67.4 66.3,59.8 68.1,53.1C70.5,50.9 71.5,47.1 72.1,45.1C73,41.9 73.9,37.4 71.5,34.2C71.4,34.1 71.3,34 71.2,33.8C71.4,32.7 71.5,31.6 71.6,30.6C74.5,11.7 64.1,10.6 62.9,10.5ZM67.6,43.7C66.2,48.6 64.9,50 63.9,50C63,55.8 58.5,63.2 51.1,65.8C49.6,66.3 48,66.6 46.4,66.6C44.8,66.6 43.2,66.3 41.7,65.8C34.4,63.2 29.8,55.8 28.9,50C27.9,49.9 26.6,48.5 25.2,43.7C23.4,37.4 25.1,36.2 26.7,36.2C26.8,36.2 26.9,36.2 27,36.2L27,36.1C26.7,35.1 25.3,29.4 30.3,25.9C34.3,26.8 40.4,27 48.6,23.5C64.3,16.8 65.7,36.2 65.7,36.2C65.8,36.2 65.9,36.2 66,36.2C67.7,36.2 69.4,37.5 67.6,43.7Z" style="fill-rule:nonzero;"/>
        </g>
    </g>
</svg>
