<?xml version="1.0" encoding="UTF-8" standalone="no"?>
<!DOCTYPE svg PUBLIC "-//W3C//DTD SVG 1.1//EN" "http://www.w3.org/Graphics/SVG/1.1/DTD/svg11.dtd">
<svg width="100%" height="100%" viewBox="0 0 705 772" version="1.1" xmlns="http://www.w3.org/2000/svg" xmlns:xlink="http://www.w3.org/1999/xlink" xml:space="preserve" xmlns:serif="http://www.serif.com/" style="fill-rule:evenodd;clip-rule:evenodd;stroke-linejoin:round;">
    <g transform="matrix(3.125,0,0,3.125,0,0)">
        <g transform="matrix(1,0,0,1,-0.001,0.000333333)">
            <ellipse cx="111.771" cy="89.988" rx="25.989" ry="27.745" style="fill:none;stroke:black;stroke-width:25px;"/>
            <path d="M146.274,144.66C140.401,131.739 127.38,122.752 112.261,122.752C96.795,122.752 83.525,132.154 77.856,145.557" style="fill:none;stroke:black;stroke-width:25px;stroke-linecap:round;"/>
        </g>
        <g transform="matrix(1,0,0,1,-0.001,0.000333333)">
            <path d="M152.042,15.281C190.413,20.906 212.801,47.782 212.801,93.564C212.801,152.143 167.961,234.231 112.651,234.231C57.338,234.231 12.501,152.143 12.501,93.564C12.501,47.782 32.889,20.906 71.259,15.281C71.258,15.281 127.721,9.023 152.042,15.281Z" style="fill:none;stroke:black;stroke-width:25px;stroke-linecap:round;"/>
        </g>
    </g>
</svg>
