<?xml version="1.0" encoding="UTF-8" standalone="no"?>
<!DOCTYPE svg PUBLIC "-//W3C//DTD SVG 1.1//EN" "http://www.w3.org/Graphics/SVG/1.1/DTD/svg11.dtd">
<svg width="100%" height="100%" viewBox="0 0 294 300" version="1.1" xmlns="http://www.w3.org/2000/svg" xmlns:xlink="http://www.w3.org/1999/xlink" xml:space="preserve" xmlns:serif="http://www.serif.com/" style="fill-rule:evenodd;clip-rule:evenodd;stroke-linejoin:round;stroke-miterlimit:1.41421;">
    <g transform="matrix(3.125,0,0,3.125,0,0)">
        <g transform="matrix(1,0,0,1,-3.1,-2)">
            <path d="M11.66,98L77.83,98C82.529,97.995 86.395,94.129 86.4,89.43L86.4,77.86L89.9,77.86C93.014,77.855 95.575,75.294 95.58,72.18L95.58,58.78C95.575,55.666 93.014,53.105 89.9,53.1L86.4,53.1L86.4,41.45C86.373,36.81 82.55,33.005 77.91,33L77.66,33L77.66,28.83C77.655,24.632 74.198,21.18 70,21.18L53.23,21.18L43.38,11.33C42.911,10.86 42.274,10.596 41.61,10.596C40.946,10.596 40.309,10.86 39.84,11.33L30,21.18L11.48,21.18C7.712,21.191 4.391,23.735 3.4,27.37C3.205,27.729 3.102,28.131 3.1,28.54L3.1,89.43C3.105,94.126 6.964,97.989 11.66,98ZM90.58,58.78L90.58,72.18C90.58,72.553 90.273,72.86 89.9,72.86L68.7,72.86C64.754,72.945 61.369,69.93 61,66C60.989,65.837 60.984,65.673 60.984,65.51C60.984,61.463 64.313,58.132 68.36,58.13L89.9,58.13C90.262,58.13 90.564,58.418 90.58,58.78ZM81.4,41.45L81.4,53.1L68.4,53.1C64.99,53.115 61.733,54.534 59.4,57.02C57.018,59.499 55.784,62.869 56,66.3C56.533,72.856 62.123,77.944 68.7,77.86L81.4,77.86L81.4,89.43C81.4,91.388 79.788,93 77.83,93L11.66,93C9.702,93 8.09,91.388 8.09,89.43L8.09,37.24C9.157,37.715 10.312,37.96 11.48,37.96L77.91,37.96C79.825,37.96 81.4,39.535 81.4,41.45ZM70,26.18C71.454,26.18 72.65,27.376 72.65,28.83L72.65,33L65,33L58.22,26.22L70,26.18ZM41.6,16.64L57.94,33L25.29,33L41.6,16.64ZM11.48,26.18L25,26.18L18.22,33L11.48,33C9.62,33 8.09,31.47 8.09,29.61C8.09,27.75 9.62,26.22 11.48,26.22L11.48,26.18Z" style="fill-rule:nonzero;"/>
        </g>
        <g transform="matrix(1,0,0,1,-3.1,-2)">
            <circle cx="68.85" cy="65.48" r="2.98"/>
        </g>
        <g transform="matrix(1,0,0,1,-3.1,-2)">
            <path d="M83.42,17.65C84.083,17.652 84.721,17.389 85.19,16.92L89.28,12.83C89.749,12.361 90.013,11.724 90.013,11.06C90.013,9.687 88.883,8.557 87.51,8.557C86.846,8.557 86.209,8.821 85.74,9.29L81.65,13.38C81.18,13.849 80.916,14.486 80.916,15.15C80.916,16.521 82.044,17.65 83.416,17.65C83.417,17.65 83.419,17.65 83.42,17.65Z" style="fill-rule:nonzero;"/>
        </g>
        <g transform="matrix(1,0,0,1,-3.1,-2)">
            <path d="M86.2,27.32C86.2,28.691 87.329,29.82 88.7,29.82L94.41,29.82C95.781,29.82 96.91,28.691 96.91,27.32C96.91,25.949 95.781,24.82 94.41,24.82L88.7,24.82C87.329,24.82 86.2,25.949 86.2,27.32Z" style="fill-rule:nonzero;"/>
        </g>
        <g transform="matrix(1,0,0,1,-3.1,-2)">
            <path d="M71.58,12.71C72.951,12.71 74.08,11.581 74.08,10.21L74.08,4.5C74.08,3.129 72.951,2 71.58,2C70.209,2 69.08,3.129 69.08,4.5L69.08,10.21C69.08,11.581 70.209,12.71 71.58,12.71Z" style="fill-rule:nonzero;"/>
        </g>
    </g>
</svg>
