<?xml version="1.0" encoding="UTF-8" standalone="no"?>
<!DOCTYPE svg PUBLIC "-//W3C//DTD SVG 1.1//EN" "http://www.w3.org/Graphics/SVG/1.1/DTD/svg11.dtd">
<svg width="100%" height="100%" viewBox="0 0 278 142" version="1.1" xmlns="http://www.w3.org/2000/svg" xmlns:xlink="http://www.w3.org/1999/xlink" xml:space="preserve" xmlns:serif="http://www.serif.com/" style="fill-rule:evenodd;clip-rule:evenodd;stroke-linejoin:round;stroke-miterlimit:1.41421;">
    <g transform="matrix(3.125,0,0,3.125,0,0)">
        <g transform="matrix(1,0,0,1,-5.627,-27.282)">
            <g>
                <path d="M80.518,66.314C72.864,66.314 66.663,63.833 66.663,60.775L66.663,66.314C66.663,69.374 72.864,71.857 80.518,71.857C88.166,71.857 94.373,69.374 94.373,66.314L94.373,60.775C94.373,63.833 88.166,66.314 80.518,66.314Z" style="fill:white;fill-rule:nonzero;"/>
                <g>
                    <g>
                        <path d="M19.482,45.537C11.828,45.537 5.627,43.058 5.627,39.999L5.627,45.537C5.627,48.6 11.828,51.08 19.482,51.08C27.13,51.08 33.337,48.601 33.337,45.537L33.337,39.999C33.338,43.059 27.131,45.537 19.482,45.537Z" style="fill:white;fill-rule:nonzero;"/>
                        <path d="M19.482,52.751C11.828,52.751 5.627,50.27 5.627,47.209L5.627,52.751C5.627,55.812 11.828,58.294 19.482,58.294C27.13,58.294 33.337,55.812 33.337,52.751L33.337,47.209C33.338,50.27 27.131,52.751 19.482,52.751Z" style="fill:white;fill-rule:nonzero;"/>
                        <path d="M19.482,59.965C11.828,59.965 5.627,57.483 5.627,54.422L5.627,59.965C5.627,63.028 11.828,65.507 19.482,65.507C27.13,65.507 33.337,63.028 33.337,59.965L33.337,54.422C33.338,57.482 27.131,59.965 19.482,59.965Z" style="fill:white;fill-rule:nonzero;"/>
                        <path d="M19.482,67.175C11.828,67.175 5.627,64.696 5.627,61.633L5.627,67.175C5.627,70.239 11.828,72.718 19.482,72.718C27.13,72.718 33.337,70.236 33.337,67.175L33.337,61.633C33.338,64.696 27.131,67.175 19.482,67.175Z" style="fill:white;fill-rule:nonzero;"/>
                        <path d="M19.482,27.282C11.828,27.282 5.627,29.764 5.627,32.824L5.627,38.367C5.627,41.43 11.828,43.909 19.482,43.909C27.13,43.909 33.337,41.43 33.337,38.367L33.337,32.824C33.338,29.765 27.131,27.282 19.482,27.282ZM19.482,36.979C11.869,36.979 7.009,34.516 7.009,32.822C7.009,31.124 11.866,28.665 19.482,28.665C27.098,28.665 31.949,31.124 31.949,32.822C31.949,34.52 27.098,36.979 19.482,36.979Z" style="fill:white;fill-rule:nonzero;"/>
                        <path d="M50.105,52.745C42.449,52.745 36.25,50.263 36.25,47.205L36.25,52.745C36.25,55.805 42.449,58.287 50.105,58.287C57.753,58.287 63.96,55.805 63.96,52.745L63.96,47.205C63.961,50.263 57.754,52.745 50.105,52.745Z" style="fill:white;fill-rule:nonzero;"/>
                        <path d="M50.105,59.958C42.449,59.958 36.25,57.477 36.25,54.416L36.25,59.958C36.25,63.019 42.449,65.501 50.105,65.501C57.753,65.501 63.96,63.019 63.96,59.958L63.96,54.416C63.961,57.477 57.754,59.958 50.105,59.958Z" style="fill:white;fill-rule:nonzero;"/>
                        <path d="M50.105,67.175C42.449,67.175 36.25,64.694 36.25,61.633L36.25,67.175C36.25,70.236 42.449,72.718 50.105,72.718C57.753,72.718 63.96,70.236 63.96,67.175L63.96,61.633C63.961,64.693 57.754,67.175 50.105,67.175Z" style="fill:white;fill-rule:nonzero;"/>
                        <path d="M50.105,34.492C42.449,34.492 36.25,36.971 36.25,40.035L36.25,45.577C36.25,48.64 42.449,51.12 50.105,51.12C57.753,51.12 63.96,48.641 63.96,45.577L63.96,40.035C63.961,36.972 57.754,34.492 50.105,34.492ZM50.105,44.188C42.492,44.188 37.63,41.726 37.63,40.031C37.63,38.334 42.487,35.875 50.105,35.875C57.72,35.875 62.572,38.334 62.572,40.031C62.572,41.727 57.721,44.188 50.105,44.188Z" style="fill:white;fill-rule:nonzero;"/>
                    </g>
                    <path d="M80.518,48.063C72.864,48.063 66.663,50.541 66.663,53.604L66.663,59.147C66.663,62.21 72.864,64.689 80.518,64.689C88.166,64.689 94.373,62.21 94.373,59.147L94.373,53.604C94.373,50.541 88.166,48.063 80.518,48.063ZM80.518,57.758C72.905,57.758 68.045,55.296 68.045,53.602C68.045,51.905 72.902,49.446 80.518,49.446C88.134,49.446 92.985,51.905 92.985,53.602C92.984,55.296 88.133,57.758 80.518,57.758Z" style="fill:white;fill-rule:nonzero;"/>
                </g>
            </g>
            <g>
                <path d="M45.123,41.18L43.35,41.321C44.194,42.153 45.747,42.652 48.009,42.816L48.009,42.21C46.609,42.063 45.643,41.721 45.123,41.18Z" style="fill:white;fill-rule:nonzero;"/>
                <path d="M44.219,38.339C44.163,38.432 44.133,38.529 44.133,38.633C44.133,38.715 44.157,38.794 44.194,38.87C44.525,39.432 46.016,39.896 48.009,40.094L48.009,39.455C46.67,39.324 45.723,38.998 45.723,38.615C45.723,38.241 46.634,37.918 47.924,37.782C47.953,37.779 47.985,37.774 48.009,37.771L48.009,37.182C47.826,37.193 47.643,37.21 47.465,37.227C45.795,37.444 44.573,37.852 44.219,38.339Z" style="fill:white;fill-rule:nonzero;"/>
                <rect x="50.521" y="36.78" width="1.345" height="6.438" style="fill:white;"/>
                <rect x="48.624" y="36.78" width="1.346" height="6.438" style="fill:white;"/>
                <path d="M55.04,38.679L56.826,38.494C56.073,37.736 54.605,37.299 52.447,37.183L52.447,37.775C52.838,37.817 53.217,37.877 53.584,37.954C54.349,38.117 54.838,38.359 55.04,38.679Z" style="fill:white;fill-rule:nonzero;"/>
                <path d="M52.479,39.673L52.484,40.295C54.282,40.403 55.621,40.795 55.621,41.265C55.621,41.556 55.096,41.816 54.276,41.999C53.903,42.096 53.438,42.163 52.87,42.204C52.748,42.215 52.613,42.226 52.484,42.233L52.484,42.817C52.558,42.814 52.626,42.809 52.705,42.806C55.408,42.52 57.278,41.92 57.278,41.226C57.277,40.511 55.304,39.95 52.479,39.673Z" style="fill:white;fill-rule:nonzero;"/>
            </g>
            <g>
                <path d="M14.292,33.93L12.519,34.071C13.363,34.903 14.916,35.402 17.178,35.566L17.178,34.96C15.778,34.813 14.812,34.471 14.292,33.93Z" style="fill:white;fill-rule:nonzero;"/>
                <path d="M13.388,31.089C13.332,31.182 13.302,31.279 13.302,31.383C13.302,31.465 13.326,31.544 13.363,31.62C13.694,32.182 15.185,32.646 17.178,32.844L17.178,32.205C15.839,32.074 14.892,31.748 14.892,31.365C14.892,30.991 15.803,30.668 17.093,30.532C17.122,30.529 17.154,30.524 17.178,30.521L17.178,29.932C16.995,29.943 16.812,29.96 16.634,29.977C14.964,30.194 13.742,30.602 13.388,31.089Z" style="fill:white;fill-rule:nonzero;"/>
                <rect x="19.69" y="29.53" width="1.345" height="6.438" style="fill:white;"/>
                <rect x="17.793" y="29.53" width="1.346" height="6.438" style="fill:white;"/>
                <path d="M24.209,31.429L25.995,31.244C25.242,30.486 23.774,30.049 21.616,29.933L21.616,30.525C22.007,30.567 22.386,30.627 22.753,30.704C23.518,30.867 24.007,31.109 24.209,31.429Z" style="fill:white;fill-rule:nonzero;"/>
                <path d="M21.647,32.423L21.652,33.045C23.45,33.153 24.789,33.545 24.789,34.015C24.789,34.306 24.264,34.566 23.444,34.749C23.071,34.846 22.606,34.913 22.038,34.954C21.916,34.965 21.781,34.976 21.652,34.983L21.652,35.567C21.726,35.564 21.794,35.559 21.873,35.556C24.576,35.27 26.446,34.67 26.446,33.976C26.446,33.261 24.473,32.7 21.647,32.423Z" style="fill:white;fill-rule:nonzero;"/>
            </g>
            <g>
                <path d="M75.327,54.68L73.554,54.821C74.398,55.653 75.951,56.153 78.213,56.317L78.213,55.71C76.813,55.563 75.847,55.221 75.327,54.68Z" style="fill:white;fill-rule:nonzero;"/>
                <path d="M74.423,51.839C74.367,51.932 74.337,52.029 74.337,52.133C74.337,52.215 74.361,52.294 74.398,52.371C74.729,52.932 76.22,53.396 78.213,53.594L78.213,52.955C76.874,52.824 75.927,52.499 75.927,52.115C75.927,51.742 76.838,51.419 78.128,51.283C78.157,51.279 78.189,51.274 78.213,51.271L78.213,50.682C78.03,50.693 77.847,50.71 77.669,50.728C75.999,50.943 74.777,51.352 74.423,51.839Z" style="fill:white;fill-rule:nonzero;"/>
                <rect x="80.726" y="50.28" width="1.345" height="6.438" style="fill:white;"/>
                <rect x="78.828" y="50.28" width="1.346" height="6.438" style="fill:white;"/>
                <path d="M85.244,52.179L87.03,51.994C86.277,51.236 84.809,50.799 82.651,50.682L82.651,51.274C83.042,51.316 83.421,51.377 83.788,51.453C84.553,51.617 85.042,51.859 85.244,52.179Z" style="fill:white;fill-rule:nonzero;"/>
                <path d="M82.683,53.174L82.688,53.795C84.486,53.903 85.825,54.295 85.825,54.765C85.825,55.056 85.3,55.317 84.48,55.498C84.107,55.596 83.642,55.662 83.074,55.703C82.952,55.715 82.817,55.724 82.688,55.732L82.688,56.316C82.762,56.312 82.83,56.308 82.909,56.304C85.612,56.018 87.482,55.417 87.482,54.724C87.481,54.012 85.508,53.45 82.683,53.174Z" style="fill:white;fill-rule:nonzero;"/>
            </g>
        </g>
    </g>
</svg>
