<?xml version="1.0" encoding="UTF-8" standalone="no"?>
<!DOCTYPE svg PUBLIC "-//W3C//DTD SVG 1.1//EN" "http://www.w3.org/Graphics/SVG/1.1/DTD/svg11.dtd">
<svg width="100%" height="100%" viewBox="0 0 75 75" version="1.1" xmlns="http://www.w3.org/2000/svg" xmlns:xlink="http://www.w3.org/1999/xlink" xml:space="preserve" xmlns:serif="http://www.serif.com/" style="fill-rule:evenodd;clip-rule:evenodd;stroke-linejoin:round;stroke-miterlimit:1.41421;">
    <g transform="matrix(3.125,0,0,3.125,0,0)">
        <g>
            <path d="M16.5,15C20.642,15 24,11.642 24,7.5C24,3.358 20.642,0 16.5,0C12.358,0 9,3.358 9,7.5C9,11.642 12.358,15 16.5,15ZM16.5,14C20.09,14 23,11.09 23,7.5C23,3.91 20.09,1 16.5,1C12.91,1 10,3.91 10,7.5C10,11.09 12.91,14 16.5,14Z" style="fill:white;"/>
            <path d="M17,3.881L17,3L16,3L16,3.928C15.015,4.151 14.359,4.903 14.359,5.814C14.359,7.967 17.752,7.64 17.752,9.158C17.752,9.822 17.196,10.189 16.541,10.189C15.5,10.189 14.756,9.435 14.756,9.435L14.2,10.179C14.2,10.179 14.84,10.888 16,11.063L16,12L17,12L17,11.064C18.1,10.884 18.744,10.079 18.744,9.128C18.744,6.856 15.351,7.243 15.351,5.795C15.351,5.239 15.877,4.773 16.621,4.773C17.513,4.773 18.158,5.378 18.158,5.378L18.605,4.564C18.605,4.564 18.053,3.997 17,3.881Z" style="fill:white;"/>
            <path d="M14.447,13.669C14.804,14.543 15,15.498 15,16.5C15,20.642 11.642,24 7.5,24C3.358,24 0,20.642 0,16.5C0,12.358 3.358,9 7.5,9C8.502,9 9.457,9.196 10.331,9.553C10.51,10.09 10.757,10.597 11.062,11.062C10.039,10.391 8.815,10 7.5,10C3.91,10 1,12.91 1,16.5C1,20.09 3.91,23 7.5,23C11.09,23 14,20.09 14,16.5C14,15.185 13.609,13.961 12.938,12.938C13.403,13.243 13.91,13.49 14.447,13.669Z" style="fill:white;"/>
            <path d="M5.043,17C5.017,16.833 5.003,16.662 5.003,16.488C5.003,16.321 5.016,16.158 5.039,16L8,16L8,15L5.378,15C5.826,14.203 6.653,13.677 7.721,13.677C8.991,13.677 9.845,14.479 9.845,14.479L10.355,13.708C10.355,13.708 9.449,12.74 7.679,12.74C6.083,12.74 4.783,13.649 4.23,15L3,15L3,16L3.971,16C3.952,16.163 3.941,16.329 3.941,16.498C3.941,16.669 3.951,16.836 3.97,17L3,17L3,18L4.215,18C4.753,19.388 6.041,20.34 7.7,20.34C9.543,20.34 10.552,19.174 10.552,19.174L10.001,18.435C10.001,18.435 9.116,19.393 7.731,19.393C6.667,19.393 5.832,18.828 5.379,18L8,18L8,17L5.043,17Z" style="fill:white;"/>
        </g>
    </g>
</svg>
