<?xml version="1.0" encoding="UTF-8" standalone="no"?>
<!DOCTYPE svg PUBLIC "-//W3C//DTD SVG 1.1//EN" "http://www.w3.org/Graphics/SVG/1.1/DTD/svg11.dtd">
<svg width="100%" height="100%" viewBox="0 0 200 271" version="1.1" xmlns="http://www.w3.org/2000/svg" xmlns:xlink="http://www.w3.org/1999/xlink" xml:space="preserve" xmlns:serif="http://www.serif.com/" style="fill-rule:evenodd;clip-rule:evenodd;stroke-linejoin:round;stroke-miterlimit:1.41421;">
    <g transform="matrix(3.125,0,0,3.125,0,0)">
        <g transform="matrix(1,0,0,1,-18,-6.76)">
            <path d="M58.17,6.76L41.83,6.76C38.538,6.76 35.83,9.468 35.83,12.76L35.83,17.55L23,17.55C20.257,17.55 18,19.807 18,22.55L18,28.75C18,31.493 20.257,33.75 23,33.75L24.13,33.75L24.13,82.24C24.13,88.274 29.096,93.24 35.13,93.24L64.87,93.24C70.904,93.24 75.87,88.274 75.87,82.24L75.87,33.75L77,33.75C79.743,33.75 82,31.493 82,28.75L82,22.55C82,19.807 79.743,17.55 77,17.55L64.17,17.55L64.17,12.76C64.17,9.468 61.462,6.76 58.17,6.76ZM41.82,12.76L58.17,12.76L58.17,17.55L41.83,17.55L41.82,12.76ZM69.82,82.24C69.82,84.983 67.563,87.24 64.82,87.24L35.12,87.24C32.377,87.24 30.12,84.983 30.12,82.24L30.12,33.75L69.87,33.75L69.82,82.24ZM76,27.75L24,27.75L24,23.55L76,23.55L76,27.75Z" style="fill:white;fill-rule:nonzero;"/>
        </g>
        <g transform="matrix(1,0,0,1,-18,-6.76)">
            <path d="M50,81C51.646,81 53,79.646 53,78L53,44.1C53,42.454 51.646,41.1 50,41.1C48.354,41.1 47,42.454 47,44.1L47,78C47,79.646 48.354,81 50,81Z" style="fill:white;fill-rule:nonzero;"/>
        </g>
        <g transform="matrix(1,0,0,1,-18,-6.76)">
            <path d="M61,81C62.646,81 64,79.646 64,78L64,44.1C64,42.454 62.646,41.1 61,41.1C59.354,41.1 58,42.454 58,44.1L58,78C58,79.646 59.354,81 61,81Z" style="fill:white;fill-rule:nonzero;"/>
        </g>
        <g transform="matrix(1,0,0,1,-18,-6.76)">
            <path d="M39,81C40.646,81 42,79.646 42,78L42,44.1C42,42.454 40.646,41.1 39,41.1C37.354,41.1 36,42.454 36,44.1L36,78C36,79.646 37.354,81 39,81Z" style="fill:white;fill-rule:nonzero;"/>
        </g>
    </g>
</svg>
