<?xml version="1.0" encoding="UTF-8" standalone="no"?>
<!DOCTYPE svg PUBLIC "-//W3C//DTD SVG 1.1//EN" "http://www.w3.org/Graphics/SVG/1.1/DTD/svg11.dtd">
<svg width="100%" height="100%" viewBox="0 0 214 430" version="1.1" xmlns="http://www.w3.org/2000/svg" xmlns:xlink="http://www.w3.org/1999/xlink" xml:space="preserve" xmlns:serif="http://www.serif.com/" style="fill-rule:evenodd;clip-rule:evenodd;stroke-linejoin:round;stroke-miterlimit:1.41421;">
    <g transform="matrix(3.125,0,0,3.125,0,0)">
        <g transform="matrix(1,0,0,1,-3.059,86.874)">
            <path d="M60.975,-86.874L13.184,-86.874C7.601,-86.874 3.059,-82.613 3.059,-77.376L3.059,41.024C3.059,46.26 7.601,50.521 13.184,50.521L60.975,50.521C66.559,50.521 71.102,46.26 71.333,41.024L71.333,-77.376C71.102,-82.613 66.559,-86.874 60.975,-86.874ZM65.248,-70.363L65.219,31.101L9.208,31.171L9.18,-70.278C9.18,-70.278 9.197,-70.292 9.237,-70.292L65.248,-70.363ZM37.356,37.163C39.418,37.163 41.093,38.839 41.093,40.9C41.093,42.961 39.418,44.637 37.356,44.637C35.295,44.637 33.618,42.961 33.618,40.9C33.618,38.839 35.296,37.163 37.356,37.163Z" style="fill:white;fill-rule:nonzero;"/>
        </g>
    </g>
</svg>
