<?xml version="1.0" encoding="UTF-8" standalone="no"?>
<!DOCTYPE svg PUBLIC "-//W3C//DTD SVG 1.1//EN" "http://www.w3.org/Graphics/SVG/1.1/DTD/svg11.dtd">
<svg width="100%" height="100%" viewBox="0 0 250 201" version="1.1" xmlns="http://www.w3.org/2000/svg" xmlns:xlink="http://www.w3.org/1999/xlink" xml:space="preserve" xmlns:serif="http://www.serif.com/" style="fill-rule:evenodd;clip-rule:evenodd;stroke-linejoin:round;stroke-miterlimit:1.41421;">
    <g transform="matrix(3.125,0,0,3.125,0,0)">
        <g transform="matrix(1,0,0,1,-10,-970.362)">
            <path d="M49.946,970.362C49.526,970.371 49.135,970.51 48.759,970.769L10.759,1000.77C9.884,1001.47 9.76,1002.77 10.415,1003.61C11.06,1004.45 12.432,1004.58 13.259,1003.93L50.009,974.925L86.759,1003.93C87.585,1004.58 88.919,1004.44 89.571,1003.61C90.218,1002.79 90.148,1001.42 89.259,1000.77L75.009,989.519L75.009,972.362C75.009,971.265 74.106,970.363 73.009,970.362L65.009,970.362C63.911,970.363 63.009,971.265 63.009,972.362L63.009,980.05L51.259,970.769C50.814,970.475 50.366,970.354 49.946,970.362ZM67.009,974.362L71.009,974.362L71.009,986.362L67.009,983.206L67.009,974.362ZM25.009,997.269L21.009,1000.43L21.009,1032.36C21.009,1033.46 21.911,1034.36 23.009,1034.36L42.009,1034.36C43.106,1034.36 44.009,1033.46 44.009,1032.36L44.009,1014.36L56.009,1014.36L56.009,1032.36C56.009,1033.46 56.911,1034.36 58.009,1034.36L77.009,1034.36C78.106,1034.36 79.009,1033.46 79.009,1032.36L79.009,1000.43L75.009,997.269L75.009,1030.36L60.009,1030.36L60.009,1012.36C60.009,1011.26 59.106,1010.36 58.009,1010.36L42.009,1010.36C40.911,1010.36 40.009,1011.26 40.009,1012.36L40.009,1030.36L25.009,1030.36L25.009,997.269Z" style="fill:white;fill-rule:nonzero;"/>
        </g>
    </g>
</svg>
