<?xml version="1.0" encoding="UTF-8" standalone="no"?>
<!DOCTYPE svg PUBLIC "-//W3C//DTD SVG 1.1//EN" "http://www.w3.org/Graphics/SVG/1.1/DTD/svg11.dtd">
<svg width="100%" height="100%" viewBox="0 0 144 144" version="1.1" xmlns="http://www.w3.org/2000/svg" xmlns:xlink="http://www.w3.org/1999/xlink" xml:space="preserve" xmlns:serif="http://www.serif.com/" style="fill-rule:evenodd;clip-rule:evenodd;stroke-linejoin:round;stroke-miterlimit:1.41421;">
    <g transform="matrix(3.125,0,0,3.125,0,0)">
        <g transform="matrix(1,0,0,1,-27,-27)">
            <path d="M73,50C73,51.105 72.105,52 71,52L52,52L52,71C52,72.104 51.105,73 50,73C48.895,73 48,72.104 48,71L48,52L29,52C27.895,52 27,51.105 27,50C27,48.895 27.895,48 29,48L48,48L48,29C48,27.895 48.895,27 50,27C51.105,27 52,27.895 52,29L52,48L71,48C72.105,48 73,48.895 73,50Z" style="fill:white;fill-rule:nonzero;"/>
        </g>
    </g>
</svg>
