<?xml version="1.0" encoding="UTF-8" standalone="no"?>
<!DOCTYPE svg PUBLIC "-//W3C//DTD SVG 1.1//EN" "http://www.w3.org/Graphics/SVG/1.1/DTD/svg11.dtd">
<svg width="100%" height="100%" viewBox="0 0 245 282" version="1.1" xmlns="http://www.w3.org/2000/svg" xmlns:xlink="http://www.w3.org/1999/xlink" xml:space="preserve" xmlns:serif="http://www.serif.com/" style="fill-rule:evenodd;clip-rule:evenodd;stroke-linejoin:round;stroke-miterlimit:1.41421;">
    <g transform="matrix(3.125,0,0,3.125,0,0)">
        <g transform="matrix(1,0,0,1,-10.8,-5)">
            <path d="M14.8,54L56.1,54L48.6,62.1C47.824,62.853 47.386,63.889 47.386,64.97C47.386,67.165 49.192,68.97 51.386,68.97C52.541,68.97 53.641,68.47 54.4,67.6L67.5,53.6C68.772,52.896 69.564,51.553 69.564,50.1C69.564,48.647 68.772,47.304 67.5,46.6L54.4,32.6C53.641,31.73 52.541,31.23 51.386,31.23C49.192,31.23 47.386,33.035 47.386,35.23C47.386,36.311 47.824,37.347 48.6,38.1L56.1,46L14.8,46C12.606,46 10.8,47.806 10.8,50C10.8,52.194 12.606,54 14.8,54Z" style="fill:white;fill-rule:nonzero;"/>
            <path d="M80.2,5L42.2,5C37.263,5 33.2,9.063 33.2,14L33.2,29C33.2,31.194 35.006,33 37.2,33C39.394,33 41.2,31.194 41.2,29L41.2,14C41.2,13.451 41.651,13 42.2,13L80.2,13C80.749,13 81.2,13.451 81.2,14L81.2,86C81.2,86.549 80.749,87 80.2,87L42.2,87C41.651,87 41.2,86.549 41.2,86L41.2,71C41.2,68.806 39.394,67 37.2,67C35.006,67 33.2,68.806 33.2,71L33.2,86C33.2,90.937 37.263,95 42.2,95L80.2,95C85.137,95 89.2,90.937 89.2,86L89.2,14C89.2,9.063 85.137,5 80.2,5Z" style="fill:white;fill-rule:nonzero;"/>
        </g>
    </g>
</svg>
