<?xml version="1.0" encoding="UTF-8" standalone="no"?>
<!DOCTYPE svg PUBLIC "-//W3C//DTD SVG 1.1//EN" "http://www.w3.org/Graphics/SVG/1.1/DTD/svg11.dtd">
<svg width="100%" height="100%" viewBox="0 0 291 300" version="1.1" xmlns="http://www.w3.org/2000/svg" xmlns:xlink="http://www.w3.org/1999/xlink" xml:space="preserve" xmlns:serif="http://www.serif.com/" style="fill-rule:evenodd;clip-rule:evenodd;stroke-linejoin:round;stroke-miterlimit:1.41421;">
    <g transform="matrix(3.125,0,0,3.125,0,0)">
        <g transform="matrix(1,0,0,1,-3.532,-2.083)">
            <path d="M24.444,67.833L24.444,51.896L29.561,51.896L29.561,63.602L36.518,63.602L36.518,67.832L24.444,67.832L24.444,67.833ZM39.373,59.881C39.373,57.284 40.114,55.236 41.597,53.736C43.078,52.235 45.1,51.486 47.66,51.486C50.214,51.486 52.229,52.236 53.708,53.736C55.187,55.236 55.926,57.284 55.926,59.881C55.926,62.471 55.187,64.517 53.708,66.021C52.229,67.525 50.214,68.277 47.66,68.277C45.099,68.277 43.078,67.525 41.597,66.021C40.114,64.517 39.373,62.471 39.373,59.881ZM44.533,59.881C44.533,61.389 44.786,62.496 45.291,63.202C45.796,63.909 46.586,64.263 47.66,64.263C48.727,64.263 49.511,63.911 50.008,63.208C50.506,62.505 50.755,61.395 50.755,59.881C50.755,58.36 50.506,57.247 50.008,56.543C49.511,55.84 48.728,55.488 47.66,55.488C46.586,55.488 45.796,55.842 45.291,56.549C44.786,57.256 44.533,58.366 44.533,59.881ZM72.358,67.833L72.109,66.459C71.532,67.072 70.837,67.528 70.021,67.827C69.206,68.127 68.257,68.276 67.175,68.276C64.896,68.276 63.1,67.528 61.787,66.031C60.474,64.535 59.818,62.485 59.818,59.881C59.818,57.22 60.55,55.155 62.014,53.688C63.478,52.221 65.53,51.486 68.17,51.486C70.247,51.486 71.922,52.002 73.195,53.032C74.467,54.064 75.223,55.517 75.462,57.392L70.604,57.392C70.41,56.757 70.094,56.274 69.658,55.943C69.221,55.611 68.682,55.445 68.041,55.445C67.017,55.445 66.25,55.839 65.741,56.625C65.233,57.411 64.978,58.583 64.978,60.141C64.978,61.583 65.235,62.662 65.747,63.376C66.259,64.09 67.038,64.446 68.084,64.446C68.834,64.446 69.471,64.271 69.993,63.922C70.516,63.572 70.839,63.102 70.962,62.51L68.657,62.51L68.657,59.103L75.657,59.103L75.657,67.833L72.358,67.833ZM85.248,2.083L78.332,2.083L21.331,2.083L7.532,2.083C5.327,2.083 3.532,3.878 3.532,6.083L3.532,93.917C3.532,96.122 5.327,97.917 7.532,97.917L92.463,97.917C94.668,97.917 96.463,96.122 96.463,93.917L96.463,78.827L96.463,40.937L96.463,14.593L85.248,2.083ZM59.998,21.166L64.414,21.166C65.795,21.166 66.914,19.921 66.914,18.384L66.914,5.083L75.332,5.083L75.332,24.249C75.332,24.801 74.883,25.249 74.332,25.249L33.461,25.249L33.461,5.083L57.498,5.083L57.498,18.384C57.498,19.921 58.617,21.166 59.998,21.166ZM30.461,5.083L30.461,25.249L25.331,25.249C24.778,25.249 24.331,24.801 24.331,24.249L24.331,5.083L30.461,5.083ZM6.532,43.938L93.463,43.938L93.463,75.828L6.532,75.828L6.532,43.938ZM93.463,93.917C93.463,94.468 93.014,94.917 92.463,94.917L7.532,94.917C6.981,94.917 6.532,94.468 6.532,93.917L6.532,78.827L93.463,78.827L93.463,93.917ZM6.532,40.938L6.532,6.083C6.532,5.532 6.981,5.083 7.532,5.083L21.331,5.083L21.331,24.249C21.331,26.455 23.124,28.249 25.331,28.249L74.332,28.249C76.537,28.249 78.332,26.455 78.332,24.249L78.332,5.083L83.908,5.083L93.463,15.74L93.463,40.937L6.532,40.937L6.532,40.938Z" style="fill:white;fill-rule:nonzero;"/>
        </g>
    </g>
</svg>
