<?xml version="1.0" encoding="UTF-8" standalone="no"?>
<!DOCTYPE svg PUBLIC "-//W3C//DTD SVG 1.1//EN" "http://www.w3.org/Graphics/SVG/1.1/DTD/svg11.dtd">
<svg width="100%" height="100%" viewBox="0 0 244 244" version="1.1" xmlns="http://www.w3.org/2000/svg" xmlns:xlink="http://www.w3.org/1999/xlink" xml:space="preserve" xmlns:serif="http://www.serif.com/" style="fill-rule:evenodd;clip-rule:evenodd;stroke-linejoin:round;stroke-miterlimit:1.41421;">
    <g transform="matrix(3.125,0,0,3.125,0,0)">
        <g transform="matrix(1,0,0,1,-11,-963.362)">
            <path d="M39.996,963.362C24.018,963.362 11,976.38 11,992.358C11,1008.34 24.018,1021.36 39.996,1021.36C45.088,1021.36 49.892,1020.05 54.057,1017.73L75.366,1039.04C78.463,1042.14 83.581,1042.14 86.677,1039.04C89.774,1035.94 89.774,1030.83 86.677,1027.73L65.368,1006.42C67.686,1002.25 68.992,997.45 68.992,992.358C68.992,976.38 55.975,963.362 39.996,963.362ZM39.996,969.361C52.732,969.361 62.993,979.622 62.993,992.358C62.993,1005.1 52.732,1015.36 39.996,1015.36C27.26,1015.36 16.999,1005.1 16.999,992.358C16.999,979.622 27.26,969.361 39.996,969.361ZM61.837,1011.39L82.428,1031.95C83.248,1032.77 83.248,1033.97 82.428,1034.79C81.608,1035.61 80.405,1035.61 79.585,1034.79L59.025,1014.2C60.025,1013.33 60.964,1012.39 61.837,1011.39Z" style="fill:white;fill-rule:nonzero;"/>
        </g>
    </g>
</svg>
