<?xml version="1.0" encoding="UTF-8" standalone="no"?>
<!DOCTYPE svg PUBLIC "-//W3C//DTD SVG 1.1//EN" "http://www.w3.org/Graphics/SVG/1.1/DTD/svg11.dtd">
<svg width="100%" height="100%" viewBox="0 0 197 232" version="1.1" xmlns="http://www.w3.org/2000/svg" xmlns:xlink="http://www.w3.org/1999/xlink" xml:space="preserve" xmlns:serif="http://www.serif.com/" style="fill-rule:evenodd;clip-rule:evenodd;stroke-linejoin:round;stroke-miterlimit:1.41421;">
    <g transform="matrix(3.125,0,0,3.125,0,0)">
        <g transform="matrix(1,0,0,1,-18.5419,-12.879)">
            <path d="M79.63,44.93C76.815,36.539 70.518,29.753 62.36,26.32C54.947,23.23 46.636,23.04 39.09,25.79L42.37,16.92C42.493,16.587 42.556,16.235 42.556,15.88C42.556,14.234 41.201,12.879 39.555,12.879C38.302,12.879 37.174,13.664 36.74,14.84L30.88,30.69L30.81,30.89C30.379,32.314 31.07,33.854 32.42,34.48L47.61,41.83C48.036,42.051 48.51,42.166 48.99,42.166C50.636,42.166 51.99,40.812 51.99,39.166C51.99,37.987 51.295,36.913 50.22,36.43L40.45,31.7C46.742,29.242 53.744,29.292 60,31.84C66.611,34.603 71.717,40.089 74,46.88C76.116,52.932 75.984,59.547 73.63,65.51C68.72,76.91 54,85.09 39.91,79.08C31.026,75.284 25.053,66.728 24.55,57.08C24.435,55.517 23.117,54.292 21.55,54.292C19.9,54.292 18.542,55.65 18.542,57.3C18.542,57.373 18.545,57.447 18.55,57.52C19.46,69.79 26.55,79.91 37.55,84.59C41.379,86.234 45.503,87.084 49.67,87.09C62.366,86.96 73.882,79.435 79.1,67.86C82.064,60.539 82.253,52.381 79.63,44.93Z" style="fill:white;fill-rule:nonzero;"/>
        </g>
    </g>
</svg>
