<?xml version="1.0" encoding="UTF-8" standalone="no"?>
<!DOCTYPE svg PUBLIC "-//W3C//DTD SVG 1.1//EN" "http://www.w3.org/Graphics/SVG/1.1/DTD/svg11.dtd">
<svg width="100%" height="100%" viewBox="0 0 238 238" version="1.1" xmlns="http://www.w3.org/2000/svg" xmlns:xlink="http://www.w3.org/1999/xlink" xml:space="preserve" xmlns:serif="http://www.serif.com/" style="fill-rule:evenodd;clip-rule:evenodd;stroke-linejoin:round;stroke-miterlimit:1.41421;">
    <g transform="matrix(3.125,0,0,3.125,0,0)">
        <g transform="matrix(1,0,0,1,-12.5076,-964.362)">
            <path d="M42.508,964.362C41.464,964.363 40.633,965.286 40.508,966.112L39.695,973.393C39.002,973.659 38.323,973.929 37.664,974.237L31.945,969.675C31.191,969.065 29.982,969.122 29.289,969.8L17.976,981.112C17.273,981.801 17.201,983.034 17.82,983.8L22.383,989.518C22.076,990.174 21.803,990.86 21.539,991.55L14.289,992.362C13.317,992.469 12.502,993.384 12.508,994.362L12.508,1010.36C12.517,1011.33 13.327,1012.23 14.289,1012.33L21.539,1013.14C21.806,1013.84 22.072,1014.54 22.383,1015.21L17.82,1020.93C17.218,1021.69 17.29,1022.9 17.976,1023.58L29.289,1034.89C29.974,1035.58 31.184,1035.65 31.945,1035.05L37.695,1030.46C38.347,1030.76 39.009,1031.04 39.695,1031.3L40.508,1038.58C40.615,1039.55 41.53,1040.37 42.508,1040.36L58.508,1040.36C59.486,1040.37 60.401,1039.55 60.508,1038.58L61.32,1031.3C62.006,1031.04 62.668,1030.76 63.32,1030.46L69.07,1035.05C69.831,1035.65 71.041,1035.58 71.726,1034.89L83.039,1023.58C83.726,1022.9 83.797,1021.69 83.195,1020.93L78.633,1015.21C78.943,1014.54 79.209,1013.84 79.476,1013.14L86.726,1012.33C87.688,1012.23 88.498,1011.33 88.508,1010.36L88.508,994.362C88.514,993.384 87.699,992.469 86.726,992.362L79.476,991.55C79.213,990.86 78.939,990.174 78.633,989.518L83.195,983.8C83.814,983.034 83.742,981.801 83.039,981.112L71.726,969.8C71.033,969.122 69.824,969.065 69.07,969.675L63.351,974.237C62.692,973.929 62.014,973.659 61.32,973.393L60.508,966.112C60.386,965.151 59.476,964.355 58.508,964.362L42.508,964.362ZM44.32,968.362L56.695,968.362L57.445,974.987C57.539,975.739 58.099,976.412 58.82,976.643C60.161,977.077 61.472,977.674 62.758,978.331C63.438,978.678 64.317,978.588 64.914,978.112L70.195,973.925L78.945,982.675L74.758,987.956C74.281,988.553 74.192,989.432 74.539,990.112C75.196,991.398 75.761,992.677 76.195,994.018C76.43,994.749 77.12,995.31 77.883,995.393L84.508,996.143L84.508,1008.55L77.883,1009.3C77.12,1009.38 76.43,1009.94 76.195,1010.68C75.761,1012.02 75.196,1013.3 74.539,1014.58C74.179,1015.27 74.269,1016.17 74.758,1016.77L78.945,1022.02L70.164,1030.8L64.914,1026.61C64.317,1026.14 63.438,1026.05 62.758,1026.39C61.472,1027.05 60.161,1027.62 58.82,1028.05C58.099,1028.28 57.539,1028.95 57.445,1029.71L56.695,1036.36L44.32,1036.36L43.57,1029.71C43.476,1028.95 42.917,1028.28 42.195,1028.05C40.854,1027.62 39.544,1027.05 38.258,1026.39C37.577,1026.05 36.698,1026.14 36.101,1026.61L30.851,1030.8L22.07,1022.02L26.258,1016.77C26.746,1016.17 26.836,1015.27 26.476,1014.58C25.819,1013.3 25.254,1012.02 24.82,1010.68C24.585,1009.94 23.895,1009.38 23.133,1009.3L16.508,1008.55L16.508,996.143L23.133,995.393C23.895,995.31 24.585,994.749 24.82,994.018C25.254,992.677 25.819,991.398 26.476,990.112C26.823,989.432 26.734,988.553 26.258,987.956L22.07,982.675L30.82,973.925L36.101,978.112C36.698,978.588 37.577,978.678 38.258,978.331C39.544,977.674 40.854,977.077 42.195,976.643C42.917,976.412 43.476,975.739 43.57,974.987L44.32,968.362ZM50.508,984.362C40.59,984.362 32.508,992.445 32.508,1002.36C32.508,1012.28 40.59,1020.36 50.508,1020.36C60.425,1020.36 68.508,1012.28 68.508,1002.36C68.508,992.445 60.425,984.362 50.508,984.362ZM50.508,988.362C58.263,988.362 64.508,994.606 64.508,1002.36C64.508,1010.12 58.263,1016.36 50.508,1016.36C42.752,1016.36 36.508,1010.12 36.508,1002.36C36.508,994.606 42.752,988.362 50.508,988.362Z" style="fill:white;fill-rule:nonzero;"/>
        </g>
    </g>
</svg>
