<?xml version="1.0" encoding="UTF-8" standalone="no"?>
<!DOCTYPE svg PUBLIC "-//W3C//DTD SVG 1.1//EN" "http://www.w3.org/Graphics/SVG/1.1/DTD/svg11.dtd">
<svg width="100%" height="100%" viewBox="0 0 183 146" version="1.1" xmlns="http://www.w3.org/2000/svg" xmlns:xlink="http://www.w3.org/1999/xlink" xml:space="preserve" xmlns:serif="http://www.serif.com/" style="fill-rule:evenodd;clip-rule:evenodd;stroke-linejoin:round;stroke-miterlimit:1.41421;">
    <g transform="matrix(3.125,0,0,3.125,0,0)">
        <g transform="matrix(1,0,0,1,-20.8788,-26.7237)">
            <path d="M42.477,73.278C41.334,73.278 40.234,72.825 39.422,72.013L22.144,54.735C20.457,53.047 20.457,50.313 22.144,48.626C23.832,46.939 26.566,46.939 28.253,48.626L42.224,62.597L71.515,28.24C73.063,26.427 75.788,26.208 77.605,27.755C79.42,29.303 79.637,32.03 78.09,33.845L45.764,71.76C44.982,72.677 43.853,73.226 42.648,73.274C42.591,73.276 42.534,73.278 42.477,73.278Z" style="fill:white;fill-rule:nonzero;"/>
        </g>
    </g>
</svg>
